# xmcd
#
# Track frame offsets: 
#        150
#        13297
#        24488
#        39328
#        50124
#        62682
#        76061
#        89755
#        101299
#        113435
#        123930
#        136128
#
# Disc length: 2020 seconds
#
# Revision: 0
# Processed by: cddbd v1.5.2PL0 Copyright (c) Steve Scherf et al.
# Submitted via: ExactAudioCopy v1.0b4
#
DISCID=9107e20c
DTITLE=Elmore James - Red Hot Blues
DYEAR=1983
DGENRE=Blues
TTITLE0=Dust My Broom
TTITLE1=Look on Yonder Wall
TTITLE2=It Hurts Me Too
TTITLE3=Coming Home
TTITLE4=The Sky Is Crying
TTITLE5=Standing at the Crossroads
TTITLE6=Hand in Hand
TTITLE7=Rollin' and Tumblin'
TTITLE8=Mean Mistreatin' Mama
TTITLE9=Done Somebody Wrong
TTITLE10=Pickin' the Blues
TTITLE11=I Believe
EXTD=
EXTT0=
EXTT1=
EXTT2=
EXTT3=
EXTT4=
EXTT5=
EXTT6=
EXTT7=
EXTT8=
EXTT9=
EXTT10=
EXTT11=
PLAYORDER=
